<svg xmlns="http://www.w3.org/2000/svg" width="79.447" height="79.447" viewBox="0 0 79.447 79.447">
  <g id="Group_167" data-name="Group 167" transform="translate(0 0)">
    <path id="Path_252" data-name="Path 252" d="M674.966,432.222h7.916a6.739,6.739,0,1,0,0-13.478h-7.916a1.463,1.463,0,0,0-1.461,1.461V430.76A1.463,1.463,0,0,0,674.966,432.222Zm1.462-10.555h6.455a3.816,3.816,0,1,1,0,7.632h-6.455Z" transform="translate(-640.936 -393.675)" fill="#004d73"/>
    <path id="Path_253" data-name="Path 253" d="M678.468,416.746l-.113-.072.066-.117a11.74,11.74,0,0,0-6.312-16.826l-.095-.033v-3.412a1.179,1.179,0,0,0-1.177-1.177h-5.277a1.179,1.179,0,0,0-1.177,1.177v2.781h-2.923v-2.781a1.179,1.179,0,0,0-1.177-1.177H655a1.179,1.179,0,0,0-1.177,1.177v2.781h-2.781a1.179,1.179,0,0,0-1.177,1.177v5.277a1.179,1.179,0,0,0,1.177,1.177h2.781v24.033h-2.781a1.179,1.179,0,0,0-1.177,1.177v5.277a1.179,1.179,0,0,0,1.177,1.177h2.781v2.781A1.179,1.179,0,0,0,655,442.322h5.278a1.179,1.179,0,0,0,1.177-1.177v-2.781h2.923v2.781a1.179,1.179,0,0,0,1.177,1.177h5.277a1.179,1.179,0,0,0,1.177-1.177v-2.781h.142a11.733,11.733,0,0,0,6.312-21.618Zm.318,16.513a9.314,9.314,0,0,1-6.63,2.75h-1.32a1.179,1.179,0,0,0-1.177,1.177v2.781h-2.923v-2.781a1.179,1.179,0,0,0-1.177-1.177h-5.278a1.179,1.179,0,0,0-1.177,1.177v2.781h-2.923v-2.781A1.179,1.179,0,0,0,655,436.009h-2.781v-2.923H655a1.179,1.179,0,0,0,1.177-1.177V405.521A1.178,1.178,0,0,0,655,404.344h-2.781v-2.923H655a1.179,1.179,0,0,0,1.177-1.177v-2.781H659.1v2.781a1.179,1.179,0,0,0,1.177,1.177h5.278a1.179,1.179,0,0,0,1.177-1.177v-2.781h2.923v3.111a1.177,1.177,0,0,0,.883,1.14,9.378,9.378,0,0,1,5.182,14.677,1.177,1.177,0,0,0,.442,1.766,9.421,9.421,0,0,1,5.362,8.47A9.315,9.315,0,0,1,678.785,433.258Z" transform="translate(-626.252 -378.991)" fill="#004d73"/>
    <path id="Path_254" data-name="Path 254" d="M686.84,460.548H674.966a1.463,1.463,0,0,0-1.461,1.461v10.555a1.463,1.463,0,0,0,1.461,1.461H686.84a6.739,6.739,0,1,0,0-13.478Zm0,10.555H676.427v-7.633H686.84a3.816,3.816,0,1,1,0,7.633Z" transform="translate(-640.936 -419.647)" fill="#004d73"/>
    <path id="Path_255" data-name="Path 255" d="M627.236,352.553a39.724,39.724,0,1,0,39.723,39.724A39.769,39.769,0,0,0,627.236,352.553Zm0,76.525a36.8,36.8,0,1,1,36.8-36.8A36.842,36.842,0,0,1,627.236,429.078Z" transform="translate(-587.512 -352.553)" fill="#004d73"/>
  </g>
</svg>
