<svg xmlns="http://www.w3.org/2000/svg" width="66.729" height="73.545" viewBox="0 0 66.729 73.545">
  <g id="Group_168" data-name="Group 168" transform="translate(0 0)">
    <path id="Path_250" data-name="Path 250" d="M369.2,371.759l12.22,12.22,26.8-26.789v4.234h2.642v-8.745h-8.759v2.642h4.249l-24.935,24.936L369.2,368.021l-15.6,15.6-.069.069,1.853,1.869Z" transform="translate(-346.232 -352.678)" fill="#004d73"/>
    <path id="Path_251" data-name="Path 251" d="M396.15,461.788V415.34H383.735V461.8h-2.252V432.454h-12.43v29.334H366.8V425.113H354.386v36.675h-2.252V444.674H339.719v17.114h-4.9v2.642h66.729l-.025-2.642Zm-46.448.2h-7.536V447.121H349.7Zm14.667,0h-7.536V427.56h7.536Zm14.667.015H371.5V434.9h7.536Zm14.667,0h-7.536V417.787H393.7Z" transform="translate(-334.824 -390.885)" fill="#004d73"/>
  </g>
</svg>
