<svg xmlns="http://www.w3.org/2000/svg" width="55.586" height="55.604" viewBox="0 0 55.586 55.604">
  <g id="Group_159" data-name="Group 159" transform="translate(0 0)">
    <path id="Path_220" data-name="Path 220" d="M481.817,773.608a3.2,3.2,0,0,1-1.068-6.223l.04-.014v-1.318a1.027,1.027,0,1,1,2.054,0v1.311l.042.014a4.162,4.162,0,0,1,1.579.988,1.027,1.027,0,0,1-1.429,1.476,1.8,1.8,0,0,0-1.219-.586,1.149,1.149,0,0,0,0,2.3,3.2,3.2,0,0,1,1.068,6.223l-.041.015v1.318a1.027,1.027,0,0,1-2.054,0V777.8l-.041-.014a4.471,4.471,0,0,1-1.964-1.4,1.027,1.027,0,0,1,1.573-1.322,2.025,2.025,0,0,0,1.459.845,1.149,1.149,0,0,0,0-2.3Z" transform="translate(-449.671 -760.673)" fill="#004d73"/>
    <path id="Path_221" data-name="Path 221" d="M458.526,894.818a1.027,1.027,0,1,0,.726.3A1.026,1.026,0,0,0,458.526,894.818Z" transform="translate(-433.748 -858.879)" fill="#004d73"/>
    <path id="Path_222" data-name="Path 222" d="M457.335,894.654a1.15,1.15,0,1,0,1.626,0A1.153,1.153,0,0,0,457.335,894.654Zm1.54,1.54a1.027,1.027,0,1,1,0-1.454A1.031,1.031,0,0,1,458.874,896.194Z" transform="translate(-433.37 -858.501)" fill="#004d73"/>
    <path id="Path_223" data-name="Path 223" d="M455.864,770.957a11.908,11.908,0,1,0-11.908-11.909A11.922,11.922,0,0,0,455.864,770.957Zm0-21.762a9.854,9.854,0,1,1-9.854,9.854A9.865,9.865,0,0,1,455.864,749.195Z" transform="translate(-423.501 -747.14)" fill="#004d73"/>
    <path id="Path_224" data-name="Path 224" d="M413.968,843.115a4.31,4.31,0,0,0-6.021.479l-6.471,6.651-.043-.053a4.287,4.287,0,0,0-3.336-1.6l-12.157,0a13.983,13.983,0,0,0-5.425-1.083,13.373,13.373,0,0,0-12.217,6.925l-.021.039-.044-.008a3.193,3.193,0,0,0-2.856.885l-5.176,5.192a1.029,1.029,0,0,0,0,1.449l12.217,12.31a1.028,1.028,0,0,0,1.45.008l5.276-5.2a3.235,3.235,0,0,0,.76-3.314l-.012-.037,1.163-1.121a3.306,3.306,0,0,1,2.308-.933h14.465a9.683,9.683,0,0,0,6.788-2.758l.014-.012c.019-.018.224-.262,1.815-2.166,1.372-1.641,3.785-4.526,8.035-9.607A4.3,4.3,0,0,0,413.968,843.115ZM377.7,867.652l-4.541,4.473-10.777-10.859.043-.043,4.411-4.424a1.149,1.149,0,0,1,1.422-.162l.019.011a23.43,23.43,0,0,1,1.911,1.876c1.313,1.316,3.576,3.583,7.506,7.507A1.147,1.147,0,0,1,377.7,867.652Zm35.21-19.81-9.759,11.667a7.643,7.643,0,0,1-5.321,2.143H383.36a5.347,5.347,0,0,0-3.735,1.509l-.968.934-8.6-8.6.021-.04a11.349,11.349,0,0,1,10.434-5.9,11.937,11.937,0,0,1,4.814,1,1.022,1.022,0,0,0,.412.086H398.1a2.237,2.237,0,1,1,0,4.474h-8.878a1.027,1.027,0,0,0,0,2.054H398.1a4.285,4.285,0,0,0,4.254-4.853l0-.029,4.552-4.678c2.123-2.182,2.565-2.636,2.59-2.666a2.237,2.237,0,1,1,3.416,2.89Z" transform="translate(-359.902 -818.998)" fill="#004d73"/>
    <path id="Path_225" data-name="Path 225" d="M481.817,775.906a2.025,2.025,0,0,1-1.459-.845,1.027,1.027,0,1,0-1.573,1.322,4.471,4.471,0,0,0,1.964,1.4l.041.014v1.314a1.027,1.027,0,0,0,2.054,0v-1.318l.041-.015a3.2,3.2,0,0,0-1.068-6.223,1.149,1.149,0,0,1,0-2.3,1.8,1.8,0,0,1,1.219.586,1.027,1.027,0,0,0,1.429-1.476,4.162,4.162,0,0,0-1.579-.988l-.042-.014v-1.311a1.027,1.027,0,1,0-2.054,0v1.318l-.04.014a3.2,3.2,0,0,0,1.068,6.223,1.149,1.149,0,0,1,0,2.3Z" transform="translate(-449.671 -760.673)" fill="#004d73"/>
  </g>
</svg>
