<svg xmlns="http://www.w3.org/2000/svg" width="79.877" height="79.875" viewBox="0 0 79.877 79.875">
  <g id="Group_169" data-name="Group 169" transform="translate(0 0)">
    <path id="Path_256" data-name="Path 256" d="M138.289,383.114l-9.319-5.325a1.331,1.331,0,0,0-1.321,0l-9.319,5.325a1.332,1.332,0,0,0-.676,1.155v3.171l-7.987-3.994v-9.828a1.331,1.331,0,0,0-.666-1.155l-9.319-5.325a1.331,1.331,0,0,0-1.321,0l-9.319,5.325a1.332,1.332,0,0,0-.676,1.155v9.828l-7.987,3.994v-3.171a1.332,1.332,0,0,0-.666-1.155l-9.319-5.325a1.331,1.331,0,0,0-1.321,0l-9.319,5.325a1.332,1.332,0,0,0-.676,1.155v10.65a1.332,1.332,0,0,0,.666,1.155l8.653,4.942v11.768l-8.653,4.942a1.332,1.332,0,0,0-.666,1.156v10.65a1.332,1.332,0,0,0,.666,1.156l9.319,5.325a1.331,1.331,0,0,0,1.321,0l8.628-4.926,9.355,5.84v3.255a1.332,1.332,0,0,0,.666,1.156l9.319,5.325a1.333,1.333,0,0,0,1.321,0l9.319-5.325a1.332,1.332,0,0,0,.676-1.156v-3.255l9.349-5.844,8.628,4.926a1.331,1.331,0,0,0,1.321,0l9.319-5.325a1.332,1.332,0,0,0,.671-1.152v-10.65a1.332,1.332,0,0,0-.666-1.156l-8.653-4.942V401.017l8.653-4.942a1.331,1.331,0,0,0,.666-1.155v-10.65A1.331,1.331,0,0,0,138.289,383.114Zm-17.972,3.449,6.656,3.8v7.588l-6.656-3.808Zm-21.3-16.735,6.637,3.791-6.637,3.792-6.636-3.792ZM107,375.913V383.5l-6.656,3.8v-7.588Zm-7.988,29.454-6.636-3.791,6.636-3.792,6.637,3.792Zm7.988-1.5v7.588l-6.656,3.8v-7.588Zm-9.319,3.8v7.588l-6.656-3.807v-7.585Zm-6.656-31.76,6.656,3.8V387.3L91.029,383.5Zm-21.3,4.565,6.636,3.791-6.636,3.792-6.637-3.792Zm7.987,6.085v7.588l-6.656,3.8v-7.588Zm-15.975,7.584v-7.584l6.656,3.8v7.588ZM68.4,432.568l-6.656-3.807v-7.584l6.656,3.8Zm1.332-9.894-6.637-3.792,6.637-3.792,6.636,3.792Zm7.987,6.086-6.656,3.8v-7.588l6.656-3.8Zm10.65.772v4.26l-7.987-5v-9.911a1.332,1.332,0,0,0-.666-1.156l-8.653-4.942V401.017l8.653-4.942a1.332,1.332,0,0,0,.666-1.155v-4.5l9.278-4.638,8.029,4.587v5.112l-8.653,4.942a1.332,1.332,0,0,0-.666,1.156v10.65a1.331,1.331,0,0,0,.666,1.155l8.653,4.942v5.112l-8.653,4.942A1.331,1.331,0,0,0,88.366,429.532Zm9.319,13.686-6.656-3.807v-7.584l6.656,3.8Zm1.331-9.889-6.636-3.8,6.636-3.791,6.637,3.791ZM107,439.41l-6.656,3.8v-7.588l6.656-3.8Zm11.316-21.684a1.332,1.332,0,0,0-.666,1.156v9.911l-7.987,5v-4.26a1.331,1.331,0,0,0-.666-1.155l-8.653-4.942v-5.112L109,413.381a1.331,1.331,0,0,0,.666-1.155v-10.65A1.332,1.332,0,0,0,109,400.42l-8.653-4.942v-5.112l8.029-4.587,9.278,4.638v4.5a1.332,1.332,0,0,0,.666,1.155l8.653,4.942v11.768Zm8.653,14.841-6.656-3.807v-7.584l6.656,3.8Zm9.319-3.807-6.656,3.8v-7.588l6.656-3.8Zm-1.351-9.878-6.637,3.792-6.636-3.792,6.636-3.792ZM128.3,388.061l-6.636-3.792,6.636-3.791,6.637,3.791Zm7.988,6.086-6.656,3.8v-7.588l6.656-3.8Z" transform="translate(-59.078 -366.963)" fill="#004d73"/>
  </g>
</svg>
