<svg xmlns="http://www.w3.org/2000/svg" width="38.166" height="52.727" viewBox="0 0 38.166 52.727">
  <g id="Group_176" data-name="Group 176" transform="translate(0 0)">
    <g id="Group_162" data-name="Group 162" transform="translate(0 -0.001)">
      <path id="Path_237" data-name="Path 237" d="M1096.833,733.04Z" transform="translate(-1058.838 -732.453)" fill="#004d73"/>
      <path id="Path_238" data-name="Path 238" d="M930.007,964.238h0Z" transform="translate(-929.489 -911.714)" fill="#004d73"/>
      <path id="Path_239" data-name="Path 239" d="M928.459,733.039Z" transform="translate(-928.288 -732.452)" fill="#004d73"/>
      <path id="Path_240" data-name="Path 240" d="M1095.718,731.612Z" transform="translate(-1057.974 -731.346)" fill="#004d73"/>
      <path id="Path_241" data-name="Path 241" d="M928.234,961.694h0Z" transform="translate(-928.113 -909.742)" fill="#004d73"/>
      <path id="Path_242" data-name="Path 242" d="M929.451,731.7Z" transform="translate(-929.057 -731.416)" fill="#004d73"/>
      <path id="Path_243" data-name="Path 243" d="M930.781,964.535h0Z" transform="translate(-930.088 -911.944)" fill="#004d73"/>
      <path id="Path_244" data-name="Path 244" d="M931.052,730.977h0Z" transform="translate(-930.299 -730.854)" fill="#004d73"/>
      <path id="Path_245" data-name="Path 245" d="M930.953,964.577h0Z" transform="translate(-930.221 -911.977)" fill="#004d73"/>
      <path id="Path_246" data-name="Path 246" d="M931.107,730.969Z" transform="translate(-930.341 -730.847)" fill="#004d73"/>
      <path id="Path_247" data-name="Path 247" d="M966,731.509l.093-.074h0l-.1.044-.081-.14.068-.1-.087.071c-.011-.014-.024-.027-.036-.04-.028-.027-.041-.04-.055-.051l.044-.107h0l-.067.09-.056-.038.025-.115-.052.1-.059-.028.012-.115-.038.105-.034-.012,0-.115-.028.109-.037-.009-.011-.115-.017.111-.035-.005-.048,0H928.98l-.065,0-.034.005-.029-.109h0v.114l-.026.006-.068-.1.032.108-.2.1-.1-.066h0l.071.087c-.014.011-.027.024-.041.037-.027.028-.04.041-.051.055l-.083.131-.119-.009h0l.1.042-.042.152-.117.024.112.011q0,.033,0,.065v50.963c0,.022,0,.044,0,.066l-.107.041h0l.111-.017.086.245.056.082c.011.014.023.027.036.039s.04.039.054.051l-.042.109.067-.09.056.038-.027.114h0l.052-.1.12.05,0,.116h0l.026-.109.013.119h0l.021-.11.049.007a.623.623,0,0,0,.079.005h36.4a.644.644,0,0,0,.065,0l.151-.034.188-.1a.682.682,0,0,0,.053-.046c.027-.028.039-.041.051-.055l.121-.227.023-.114a.7.7,0,0,0,0-.077V731.73c0-.022,0-.044,0-.066l.112-.011h-.114Zm-2.2.877-2.327,2.327H932.893l-2.327-2.327Zm-34.16.929,2.327,2.327v43.139l-2.327,2.327Zm.929,48.722,2.327-2.327H961.47l2.327,2.327Zm12.976-5.967a4.293,4.293,0,0,0,2.8-1.04l.185-.16V778.4h-5.967V776.07Zm-2.983-1.314v-2.327h5.9l-.04.142a2.994,2.994,0,0,1-2.875,2.185Zm0-3.64v-4.147H947.3l-.086.164a6.037,6.037,0,0,0-.691,2.819v1.164Zm.07-5.461.04-.142a2.993,2.993,0,0,1,2.874-2.184.658.658,0,0,0,.657-.657V761.4l.131.022a6.1,6.1,0,0,0,5.653-2.027l.2-.227v5.188l-.066.03a6.118,6.118,0,0,0-1.788,1.238l-.033.033Zm-.07-10.264v-8.444h6l.012.1a6.161,6.161,0,0,0,3.542,4.813l.066.03v3.355a.914.914,0,0,0-.015.148,4.8,4.8,0,1,1-9.607,0Zm7.28,14.561a4.8,4.8,0,1,1,9.607,0V778.4h-9.607Zm6.877-5.756-.148-.049a6.077,6.077,0,0,0-2.944-.226l-.131.022V752.3l.131.022a6.141,6.141,0,0,0,1.018.086.657.657,0,0,0,0-1.314,4.809,4.809,0,0,1-4.8-4.8.657.657,0,0,0-.657-.657H942.41l.015-.126a6.594,6.594,0,0,1,5.27-5.711l.021,0,.021,0a8.428,8.428,0,0,1,6.979,8.314Zm-10.867-23.95a7.891,7.891,0,0,0-2.748,5.285l-.01.1H939.9a.657.657,0,0,0-.657.657v9.1a6.14,6.14,0,0,0,3.575,5.562l.065.03v1.059l-.1.01a7.951,7.951,0,0,0-4.765,2.208l-.191.185V748.111a8.414,8.414,0,0,1,5.915-8.057l.526-.166ZM939.264,764.9l.3-.252-.117.372a4.286,4.286,0,0,0-.2,1.292V778.4h-2.327v-8.444A6.615,6.615,0,0,1,939.264,764.9Zm25.463,16.207-2.327-2.327v-32.6a.657.657,0,0,0-1.313,0V778.4h-2.327v-8.444a6.12,6.12,0,0,0-2.681-5.058l-.049-.034v-16.75a9.721,9.721,0,0,0-8.162-9.626.7.7,0,0,0-.078-.013,9.761,9.761,0,0,0-11.274,9.639v18.158l-.013.024a7.833,7.833,0,0,0-.9,3.659V778.4h-2.327v-42.37h27.809v6.734a.657.657,0,0,0,1.313,0v-7.119l2.327-2.327Z" transform="translate(-928.099 -730.848)" fill="#004d73"/>
      <path id="Path_248" data-name="Path 248" d="M965.859,731.222l0-.025-.111.017.108-.041-.006-.037c0-.012-.005-.024-.012-.051l-.008-.032c0-.011-.007-.022-.018-.054l-.027-.065c-.006-.014-.013-.029-.02-.042l-.025-.043c-.006-.011-.013-.022-.02-.031l-.051-.069c-.015-.019-.032-.037-.048-.053l-.019-.019c-.018-.017-.036-.034-.055-.05l-.038-.029-.031-.022-.048-.029-.148-.068-.039-.014-.17-.034-.085,0H928.558l-.066,0-.034,0,.005.113h0l-.027-.109-.029,0-.056.014-.027.007-.053.018-.15.073-.031.019c-.013.008-.024.017-.047.034l-.023.017c-.019.016-.038.033-.054.049l-.019.019c-.017.018-.034.036-.05.055l-.018.024.091.066-.106-.046c-.006.009-.013.017-.018.025s-.014.021-.028.045-.013.02-.017.029-.012.024-.024.049l-.029.071c0,.013-.01.026-.015.042l-.021.082c0,.014,0,.029-.009.056l0,.028c0,.029,0,.059,0,.088v50.963c0,.029,0,.058,0,.089l0,.023.111-.017-.107.041.006.037c0,.012.005.024.012.051l.008.032c0,.011.007.022.018.052l.011.029c0,.01.009.02.017.037s.013.028.021.043l.043.072c.006.009.013.018.019.026l.09-.068-.075.088.018.024c.016.019.033.038.047.052l.022.022c.018.017.036.034.053.048l.04.03.03.022.123.068.029.013.109.037.027-.109v.116l.115.02c.029,0,.058,0,.087,0h36.4c.029,0,.058,0,.086,0l.053-.007.116-.026.052-.018.03-.011.029-.013-.048-.1.071.09.129-.078-.058-.1.076.083.022-.017c.019-.016.037-.032.055-.05l.019-.019c.017-.017.033-.035.05-.055l.027-.036.023-.031.081-.151c0-.011.008-.022.019-.051,0-.011.008-.022.011-.032l.013-.05c0-.012.006-.024.008-.034l.006-.037-.109-.029.113,0,0-.024c0-.029,0-.058,0-.087V731.309C965.864,731.28,965.862,731.251,965.859,731.222Zm-.224.021c0,.022,0,.044,0,.066v50.963a.684.684,0,0,1,0,.077l-.023.113-.121.227c-.012.014-.024.027-.051.055a.7.7,0,0,1-.053.046l-.188.1-.151.034a.645.645,0,0,1-.065,0h-36.4a.629.629,0,0,1-.08-.005l-.049-.007-.022.11h0l-.013-.119-.026.109h0l0-.116-.12-.05-.052.1h0l.027-.114-.056-.038-.068.09.042-.109c-.014-.011-.027-.024-.054-.051a.507.507,0,0,1-.036-.039l-.056-.082-.086-.245-.111.017h0l.107-.041c0-.022,0-.044,0-.066V731.309c0-.022,0-.044,0-.065l-.112-.011.117-.023.042-.152-.1-.043h0l.12.009.083-.131c.011-.014.023-.027.051-.055.013-.013.027-.025.04-.037l-.071-.087h0l.1.066.2-.1-.032-.108.068.1.026-.006v-.114h0l.029.109.034,0,.065,0H965l.048,0,.035.005.017-.111.011.115.037.009.028-.109,0,.115.034.012.039-.105-.012.115.06.028.052-.1-.025.115.056.037.067-.09h0l-.044.107c.014.012.027.024.055.051.013.013.025.026.036.04l.087-.071-.068.1.081.14.1-.044h0l-.093.074.034.143h.113Z" transform="translate(-927.698 -730.427)" fill="#004d73"/>
      <path id="Path_249" data-name="Path 249" d="M998.6,817.159a.658.658,0,0,0-.657-.657h-2.73a.658.658,0,0,0-.657.657V820.2h-.214a.657.657,0,1,0,0,1.314h.871a.657.657,0,0,0,.657-.657v-3.038h2.074A.658.658,0,0,0,998.6,817.159Z" transform="translate(-978.865 -797.166)" fill="#004d73"/>
    </g>
  </g>
</svg>
