<svg xmlns="http://www.w3.org/2000/svg" width="56.321" height="56.321" viewBox="0 0 56.321 56.321">
  <g id="Group_172" data-name="Group 172" transform="translate(0 0)">
    <g id="Group_158" data-name="Group 158" transform="translate(0 0)">
      <path id="Path_217" data-name="Path 217" d="M699.2,824.438a25.568,25.568,0,0,1-30.722-38.289l.205-.3.338.125a4.585,4.585,0,0,0,4.823-1.049,4.567,4.567,0,1,0-7.167-.912l.153.26-.175.246a27.781,27.781,0,0,0-5.226,16.154,27.929,27.929,0,0,0,38.679,26.009,1.213,1.213,0,1,0-.91-2.248Zm-30.1-44.252a2.141,2.141,0,1,1,0,3.03A2.127,2.127,0,0,1,669.1,780.186Z" transform="translate(-661.43 -772.516)" fill="#004d73"/>
      <g id="Group_156" data-name="Group 156" transform="translate(10.175 10.175)">
        <path id="Path_218" data-name="Path 218" d="M714.446,796.262a17.985,17.985,0,1,0,17.985,17.985A18.006,18.006,0,0,0,714.446,796.262Zm5.777,3.538a15.576,15.576,0,0,1,7.752,6.754q.129.226.249.456.242.46.453.937a15.463,15.463,0,0,1,.854,2.477q.129.512.225,1.037t.155,1.059l.057.516h-7.614l-.017-.447a32.586,32.586,0,0,0-2.02-10.651c-.209-.523-.438-1.025-.679-1.493l-.573-1.109Zm-5.777-1.112c1.226,0,2.579,1.552,3.618,4.15a30.013,30.013,0,0,1,1.843,9.714l.02.484H708.965l.02-.484a30.014,30.014,0,0,1,1.843-9.714C711.868,800.239,713.22,798.687,714.446,798.687Zm-15.463,13.832A15.543,15.543,0,0,1,708.67,799.8l1.159-.465-.573,1.11c-.241.468-.47.97-.679,1.493a32.578,32.578,0,0,0-2.019,10.651l-.017.447h-7.614Zm9.687,16.176a15.542,15.542,0,0,1-9.687-12.719l-.057-.516h7.614l.017.447a32.582,32.582,0,0,0,2.02,10.651c.209.522.437,1.024.679,1.492l.573,1.11Zm5.777,1.112c-1.226,0-2.578-1.552-3.618-4.15a30.008,30.008,0,0,1-1.843-9.713l-.02-.484h10.962l-.02.484q-.043,1.047-.136,2.052a27.855,27.855,0,0,1-1.707,7.661C717.025,828.256,715.672,829.807,714.446,829.807Zm15.463-13.831a15.541,15.541,0,0,1-9.687,12.719l-1.159.465.573-1.11c.242-.469.471-.971.679-1.492a32.576,32.576,0,0,0,2.02-10.651l.017-.447h7.614Z" transform="translate(-696.461 -796.262)" fill="#004d73"/>
      </g>
      <g id="Group_157" data-name="Group 157" transform="translate(16.884 0)">
        <path id="Path_219" data-name="Path 219" d="M753.595,805.791l.174-.246A27.779,27.779,0,0,0,759,789.392a27.93,27.93,0,0,0-38.679-26.01,1.213,1.213,0,0,0,.91,2.248,25.568,25.568,0,0,1,30.721,38.289l-.205.3-.337-.125a4.565,4.565,0,1,0,2.342,1.962Zm-2.269,4.091a2.141,2.141,0,1,1,0-3.029A2.127,2.127,0,0,1,751.326,809.882Z" transform="translate(-719.559 -761.231)" fill="#004d73"/>
      </g>
    </g>
  </g>
</svg>
