<svg xmlns="http://www.w3.org/2000/svg" width="51.483" height="56.889" viewBox="0 0 51.483 56.889">
  <g id="Group_171" data-name="Group 171" transform="translate(0 0)">
    <path id="Path_228" data-name="Path 228" d="M155.64,810.409l.1-.2a14.75,14.75,0,0,0,.685-1.658l.072-.209,3.189-1.308a1.191,1.191,0,0,0,.727-.949,16.388,16.388,0,0,0,0-4.538,1.19,1.19,0,0,0-.726-.948l-3.189-1.308-.072-.208a14.957,14.957,0,0,0-.683-1.658l-.1-.2,1.327-3.174a1.189,1.189,0,0,0-.158-1.184,17.986,17.986,0,0,0-3.212-3.214,1.185,1.185,0,0,0-1.184-.157l-3.174,1.327-.2-.1a14.829,14.829,0,0,0-1.658-.683l-.209-.072-1.309-3.189a1.187,1.187,0,0,0-.947-.727,16.116,16.116,0,0,0-4.541,0,1.187,1.187,0,0,0-.947.727l-1.309,3.189-.209.072a14.813,14.813,0,0,0-1.658.683l-.2.1-3.174-1.327a1.183,1.183,0,0,0-1.183.156,18.047,18.047,0,0,0-3.213,3.213,1.19,1.19,0,0,0-.158,1.185l1.328,3.173-.1.2a14.816,14.816,0,0,0-.685,1.659l-.072.208-3.189,1.308a1.191,1.191,0,0,0-.726.949,16.39,16.39,0,0,0,0,4.538,1.192,1.192,0,0,0,.726.949l3.189,1.308.072.208a14.889,14.889,0,0,0,.684,1.659l.1.2-1.327,3.174a1.189,1.189,0,0,0,.158,1.184,18.016,18.016,0,0,0,3.212,3.213,1.189,1.189,0,0,0,1.185.156l3.174-1.327.2.1a14.893,14.893,0,0,0,1.658.683l.209.071,1.309,3.189a1.188,1.188,0,0,0,.948.727,16.4,16.4,0,0,0,4.54,0,1.188,1.188,0,0,0,.947-.727l1.309-3.189.209-.072a14.593,14.593,0,0,0,1.657-.683l.2-.1,3.174,1.327a1.187,1.187,0,0,0,1.184-.156,18.01,18.01,0,0,0,3.212-3.213,1.19,1.19,0,0,0,.158-1.185Zm-.572-4.046a1.177,1.177,0,0,0-.69.774,12.181,12.181,0,0,1-1.085,2.628,1.2,1.2,0,0,0-.06,1.039l1.274,3.044-.2.229a15.858,15.858,0,0,1-1.4,1.4l-.229.2-3.046-1.273a1.178,1.178,0,0,0-1.038.06,12.158,12.158,0,0,1-2.626,1.084h0a1.174,1.174,0,0,0-.773.691l-1.258,3.065-.3.022c-.351.026-.674.038-.988.038s-.638-.012-.988-.038l-.3-.022-1.258-3.064a1.175,1.175,0,0,0-.773-.691,12.269,12.269,0,0,1-2.628-1.084,1.189,1.189,0,0,0-1.038-.06l-3.045,1.273-.229-.2a15.983,15.983,0,0,1-1.4-1.4l-.2-.229,1.272-3.045a1.183,1.183,0,0,0-.059-1.037,12.108,12.108,0,0,1-1.084-2.628,1.178,1.178,0,0,0-.69-.775l-3.063-1.256-.023-.3c-.027-.337-.039-.66-.039-.989s.013-.652.039-.99l.023-.3,3.063-1.257a1.173,1.173,0,0,0,.69-.773,12.189,12.189,0,0,1,1.085-2.627,1.184,1.184,0,0,0,.06-1.04l-1.274-3.045.2-.229a15.839,15.839,0,0,1,1.4-1.4l.229-.2,3.046,1.274a1.189,1.189,0,0,0,1.038-.061,12.266,12.266,0,0,1,2.626-1.083,1.175,1.175,0,0,0,.774-.69l1.258-3.065.3-.022a12.88,12.88,0,0,1,1.976,0l.3.022L145.2,791.4a1.176,1.176,0,0,0,.773.691,12.246,12.246,0,0,1,2.628,1.084,1.185,1.185,0,0,0,1.038.06l3.045-1.273.229.2a15.915,15.915,0,0,1,1.4,1.4l.2.229-1.272,3.045a1.184,1.184,0,0,0,.059,1.038,12.143,12.143,0,0,1,1.084,2.628,1.177,1.177,0,0,0,.69.775l3.063,1.256.023.3c.026.336.039.66.039.99s-.013.653-.039.99l-.023.3Z" transform="translate(-116.368 -773.211)" fill="#004d73"/>
    <g id="Group_160" data-name="Group 160" transform="translate(18.403 22.73)">
      <path id="Path_229" data-name="Path 229" d="M173.86,827.16a7.878,7.878,0,1,0,7.878,7.878A7.887,7.887,0,0,0,173.86,827.16Zm0,13.384a5.506,5.506,0,1,1,5.506-5.506A5.512,5.512,0,0,1,173.86,840.544Z" transform="translate(-165.982 -827.16)" fill="#004d73"/>
    </g>
    <path id="Path_230" data-name="Path 230" d="M258.194,925.825l1.409,1.91a26.463,26.463,0,0,0,4.328-4.18l-1.859-1.475A24.111,24.111,0,0,1,258.194,925.825Z" transform="translate(-217.351 -876.252)" fill="#004d73"/>
    <g id="Group_161" data-name="Group 161" transform="translate(0 -0.001)">
      <path id="Path_231" data-name="Path 231" d="M134.209,738.43l-4.675-4.675-1.677,1.677,2.65,2.65H116.64A26.275,26.275,0,0,0,93.017,775.89l2.111-1.082a23.917,23.917,0,0,1,21.512-34.353h13.866l-2.65,2.65,1.677,1.677,4.675-4.675a1.186,1.186,0,0,0,0-1.678Z" transform="translate(-90.359 -733.755)" fill="#004d73"/>
    </g>
    <path id="Path_232" data-name="Path 232" d="M283.826,892.613l2.037,1.216a26.091,26.091,0,0,0,2.366-5.539l-2.287-.631A23.785,23.785,0,0,1,283.826,892.613Z" transform="translate(-236.746 -850.206)" fill="#004d73"/>
    <path id="Path_233" data-name="Path 233" d="M112.666,917.1l-1.951,1.352a26.44,26.44,0,0,0,4.054,4.448l1.527-1.817A23.971,23.971,0,0,1,112.666,917.1Z" transform="translate(-105.761 -872.484)" fill="#004d73"/>
    <path id="Path_234" data-name="Path 234" d="M223.143,948.6l.549,2.308a26.123,26.123,0,0,0,5.62-2.167l-1.142-2.08A23.768,23.768,0,0,1,223.143,948.6Z" transform="translate(-190.83 -894.852)" fill="#004d73"/>
    <path id="Path_235" data-name="Path 235" d="M142.2,945.572a26.169,26.169,0,0,0,5.468,2.525l.7-2.269a23.747,23.747,0,0,1-4.891-2.259Z" transform="translate(-129.585 -892.511)" fill="#004d73"/>
    <path id="Path_236" data-name="Path 236" d="M186.444,957.02a17.8,17.8,0,0,1-3.478-.245l-.386,2.337a30.582,30.582,0,0,0,3.869.281c.7,0,1.426-.03,2.144-.088l-.239-2.361C187.718,956.994,187.077,957.02,186.444,957.02Z" transform="translate(-160.137 -902.504)" fill="#004d73"/>
  </g>
</svg>
